<svg xmlns="http://www.w3.org/2000/svg" xmlns:xlink="http://www.w3.org/1999/xlink" fill="none" version="1.1" width="25.470853805541992" height="28" viewBox="0 0 25.470853805541992 28"><g><path d="M22.9238,20L25.4709,20L25.4709,22.6667L0,22.6667L0,20L2.54709,20L2.54709,10.6667C2.54709,4.77563,7.10856,0,12.7354,0C18.3623,0,22.9238,4.77563,22.9238,10.6667L22.9238,20ZM20.3767,20L20.3767,10.6667C20.3767,6.24839,16.9556,2.66667,12.7354,2.66667C8.51528,2.66667,5.09417,6.24839,5.09417,10.6667L5.09417,20L20.3767,20ZM8.9148,25.3333L16.5561,25.3333L16.5561,28L8.9148,28L8.9148,25.3333Z" fill="#FA9550" fill-opacity="1"/></g></svg>